<svg width="1360" height="324" fill="none" xmlns="http://www.w3.org/2000/svg"><path d="M1260.05 221.262c-13.18.054-13.98-9.132-12.46-12.444 9.12-19.83 26.11-9.834 31.08-15.095 2.54-2.697 3.34-3.12 6.29-5.282 11.4-8.377 18.47 8.843 27.32-.566 4.15-4.411 18.35-4.768 21.32 6.313 2.69 10.016 10.88 4.742 16.84 9.349 4.87 3.763 10.88 8.635 5.62 14.65-4.19 4.795-15.04 3.05-22.93 2.833-30.03-.83-43.1.121-73.08.242z" fill="#fff" stroke="#071D2B" stroke-width="2.5" stroke-miterlimit="10" stroke-linecap="round" stroke-linejoin="round"/><path d="M1254.59 208.865c.82-10.886 39.82-10.491 39.82-10.491s31.35 3.943 30.52 14.829c-.82 10.886 4 14.829-32.78 15.059-25.8.161-38.39-8.511-37.56-19.397z" fill="#D4E7FF"/><path d="M1260.05 221.262c-13.18.054-13.98-9.132-12.46-12.444 9.12-19.83 26.11-9.834 31.08-15.095 2.54-2.697 3.34-3.12 6.29-5.282 11.4-8.377 18.47 8.843 27.32-.566 4.15-4.411 18.35-4.768 21.32 6.313 2.69 10.016 10.88 4.742 16.84 9.349 4.87 3.763 10.88 8.635 5.62 14.65-4.19 4.795-15.04 3.05-22.93 2.833-30.03-.83-43.1.121-73.08.242z" stroke="#071D2B" stroke-width="2.5" stroke-miterlimit="10" stroke-linecap="round" stroke-linejoin="round"/><path d="M247.444 302.164c9.901.045 10.306-4.377 9.327-9.871-2.645-14.832-19.599-7.84-23.253-11.972-3.225-3.648-4.639-4.143-5.935-4.959-7.754-4.883-10.956 5.321-19.243.318-3.361-2.029-13.144-3.094-15.966 5.004-2.696 7.733-6.386 3.343-12.604 7.407-3.943 2.577-8.12 6.847-4.196 11.609 3.147 3.809 11.267 2.403 17.159 2.252 22.491-.635 32.277.121 54.711.212z" fill="#fff" stroke="#071D2B" stroke-width="2.5" stroke-miterlimit="10" stroke-linecap="round" stroke-linejoin="round"/><path d="M185.157 300.8c.671-8.886 32.508-8.563 32.508-8.563s25.59 3.218 24.92 12.105c-.671 8.886 3.264 12.105-26.76 12.292-21.063.132-31.338-6.947-30.668-15.834z" fill="#D4E7FF"/><path d="M247.444 302.164c9.901.045 10.306-4.377 9.327-9.871-2.645-14.832-19.599-7.84-23.253-11.972-3.225-3.648-4.639-4.143-5.935-4.959-7.754-4.883-10.956 5.321-19.243.318-3.361-2.029-13.144-3.094-15.966 5.004-2.696 7.733-6.386 3.343-12.604 7.407-3.943 2.577-8.12 6.847-4.196 11.609 3.147 3.809 11.267 2.403 17.159 2.252 22.491-.635 32.277.121 54.711.212z" stroke="#071D2B" stroke-width="2.5" stroke-miterlimit="10" stroke-linecap="round" stroke-linejoin="round"/><path d="M10.994 138.544c-8.382.034-9.327-3.734-8.915-7.132 1.019-8.405 15.497-5.114 17.32-9.339 5.42-12.561 14.6.197 20.037-4.585 7.047-6.198 14.709-3.46 18.224 2.924 2.831 5.142 5.379 0 11.746 3.274 3.48 1.789 4.62 6.703 1.274 10.528-2.668 3.05-8.08 5.196-13.02 4.33-18.605-3.261-27.902-.076-46.666 0z" fill="#fff" stroke="#071D2B" stroke-width="2.5" stroke-miterlimit="10" stroke-linecap="round" stroke-linejoin="round"/><path d="M21.292 131.297c.546-7.231 26.451-6.968 26.451-6.968s20.822 2.619 20.277 9.85c-.546 7.231 2.656 9.85-21.774 10.002-17.139.107-25.5-5.653-24.954-12.884z" fill="#D4E7FF"/><path d="M10.994 138.544c-8.382.034-9.327-3.734-8.915-7.132 1.019-8.405 15.497-5.114 17.32-9.339 5.42-12.561 14.6.197 20.037-4.585 7.047-6.198 14.709-3.46 18.224 2.924 2.831 5.142 5.379 0 11.746 3.274 3.48 1.789 4.62 6.703 1.274 10.528-2.668 3.05-8.08 5.196-13.02 4.33-18.605-3.261-27.902-.076-46.666 0z" stroke="#071D2B" stroke-width="2.5" stroke-miterlimit="10" stroke-linecap="round" stroke-linejoin="round"/><g clip-path="url(#clip0_917_27244)"><path d="M567.381 57.103c-23.081 11.4-64.883 5.768-64.883 5.768s-14.231 47.455-11.297 73.957c2.678 24.179 18.706 45.491 33.968 54.449 0 0 36.219.222 58.608-26.146 20.471-24.11 33.079-67.297 33.079-67.297s-36.206-17.895-49.475-40.731z" fill="#F8F9FA" stroke="#071D2B" stroke-width="2.5" stroke-miterlimit="10" stroke-linecap="round" stroke-linejoin="round"/><path d="M497.899 159.852c-1.938.027-17.728-1.742-17.329-11.062.547-12.796 24.546-1.938 29.493 1.686 20.919 15.328 27.353 31.905 59.687 37.162 19.083 3.103 30.753-8.825 16.07-24.736" stroke="#071D2B" stroke-width="2.5" stroke-miterlimit="10" stroke-linecap="round" stroke-linejoin="round"/><path d="M536.369 145.945c13.157 11.013 24.87 2.941 35.724-10.026 10.854-12.966 7.138-20.894-6.019-31.907-13.156-11.013-26.877-11.218-37.731 1.749-14.248 17.02-5.13 29.171 8.026 40.184z" fill="#BBED58"/><path d="M518.141 110.937c4.899-15.818 21.777-24.64 37.709-19.708 15.966 4.82 25.026 21.572 20.241 37.425-4.873 15.73-22.356 24.625-37.975 19.85-15.621-4.776-24.824-21.914-19.975-37.567z" stroke="#071D2B" stroke-width="2.5" stroke-miterlimit="10" stroke-linecap="round" stroke-linejoin="round"/><path d="M543.316 123.088l17.073-9.204a3.022 3.022 0 112.84 5.334l-17.054 8.965a6 6 0 01-8.09-2.494l-3.817-7.179a2.901 2.901 0 015.116-2.735l3.932 7.313z" fill="#fff" stroke="#071D2B" stroke-width="2.5" stroke-linecap="round" stroke-linejoin="round"/></g><defs><clipPath id="clip0_917_27244"><path fill="#fff" transform="rotate(17 129.434 1719.432)" d="M0 0h123v144H0z"/></clipPath></defs></svg>